# xmcd CD database file
#
# Track frame offsets:
#	182
#	25857
#	52907
#	78300
#	101257
#	137320
#	163970
#	182702
#	208672
#
# Disc length: 3276 seconds
#
# Revision: 0
# Processed by: cddbd v1.5PL3 Copyright (c) Steve Scherf et al.
# Submitted via: CDex 1.51
#
DISCID=6a0cca09
DTITLE=Philippe Duchemin Trio - Live
DYEAR=1992
DGENRE=Jazz
TTITLE0=Vipo
TTITLE1=Take Bach
TTITLE2=Grand fauve
TTITLE3=Night and day
TTITLE4=Georgia
TTITLE5=Sonoroso
TTITLE6=Petite chose fragile
TTITLE7=Come rain or come shine
TTITLE8=Moanin'
EXTD=YEAR: 1992
EXTT0=
EXTT1=
EXTT2=
EXTT3=
EXTT4=
EXTT5=
EXTT6=
EXTT7=
EXTT8=
PLAYORDER=
